# xmcd
#
# Track frame offsets: 
#        150
#        11457
#        22750
#        34600
#        48465
#        66527
#        80910
#        96307
#        115745
#
# Disc length: 1765 seconds
#
# Revision: 2
# Processed by: cddbd v1.5.2PL0 Copyright (c) Steve Scherf et al.
# Submitted via: ExactAudioCopyFreeDBPlugin 1.0
#
DISCID=6e06e309
DTITLE=Conway Twitty - The Best Of The Best Of
DYEAR=1991
DGENRE=Country
TTITLE0=Hello Darlin'
TTITLE1=It's Only Make Believe
TTITLE2=Don't Call Him A Cowboy
TTITLE3=Between Blue Eyes And Jeans
TTITLE4=The Legend And The Man
TTITLE5=You've Never Been This Far Before
TTITLE6=Ain't She Something Else
TTITLE7=Heartache Tonight
TTITLE8=Three Times A Lady
EXTD=
EXTT0=
EXTT1=
EXTT2=
EXTT3=
EXTT4=
EXTT5=
EXTT6=
EXTT7=
EXTT8=
PLAYORDER=
